<svg width="131" height="131" viewBox="0 0 131 131" fill="none" xmlns="http://www.w3.org/2000/svg">
<path d="M98.4759 15.5115C97.8616 15.2355 97.4282 15.1199 97.1757 15.1647C96.915 15.2116 96.6115 15.532 96.2651 16.1258L92.1845 23.1211C91.859 23.6791 91.7315 24.0918 91.8019 24.3593C91.8693 24.6319 92.1828 24.9588 92.7425 25.3402L92.5723 25.632L88.1263 23.0385L88.2966 22.7468C88.8929 23.0535 89.3372 23.1857 89.6294 23.1435C89.9165 23.0983 90.2124 22.8146 90.517 22.2924L94.9245 14.7366C95.0261 14.5625 95.0785 14.4079 95.0819 14.2727C95.0773 14.1396 94.9825 14.002 94.7978 13.8599C94.6891 13.7759 94.5722 13.694 94.4472 13.6142C94.3171 13.5315 94.0728 13.3856 93.7145 13.1765C92.317 12.3613 91.3053 11.9256 90.6795 11.8692C90.0537 11.8129 89.2342 12.1239 88.221 12.8022L87.8217 12.5693L90.1797 10.2913L98.6417 15.2274L98.4759 15.5115Z" fill="#333333"/>
<path d="M85.1665 12.752C84.8289 13.882 84.1862 14.7291 83.2383 15.2934C82.2831 15.8616 81.2404 15.9769 80.1104 15.6393C78.9861 15.3035 78.1651 14.6562 77.6474 13.6974C77.1297 12.7387 77.0541 11.6461 77.4205 10.4195C77.758 9.28952 78.4092 8.41401 79.3741 7.793C80.3389 7.172 81.3892 7.03113 82.5249 7.37038C83.6151 7.69607 84.4183 8.37205 84.9344 9.39832C85.4504 10.4246 85.5278 11.5425 85.1665 12.752ZM80.5016 15.1995C80.9502 15.3335 81.3833 15.3021 81.8008 15.1052C82.523 14.7581 83.0733 13.9514 83.4516 12.685C83.7535 11.6743 83.8079 10.6638 83.6149 9.65361C83.4162 8.64172 82.9108 8.0145 82.0988 7.77193C81.4628 7.58194 80.8871 7.7285 80.3716 8.21161C79.8505 8.69302 79.4483 9.40788 79.1651 10.3562C78.8716 11.3386 78.8137 12.3295 78.9914 13.3289C79.1691 14.3283 79.6725 14.9518 80.5016 15.1995Z" fill="#333333"/>
<path d="M73.9784 5.97782C73.4311 5.97194 73.0621 6.03112 72.8713 6.15538C72.6799 6.28553 72.5612 6.58654 72.515 7.0584L72.1248 11.0486C72.0677 11.6325 72.0831 12.0538 72.1709 12.3125C72.2523 12.5765 72.4375 12.7227 72.7265 12.7509C72.7855 12.7567 72.866 12.7556 72.968 12.7478C73.0635 12.7452 73.1655 12.7373 73.274 12.7241L73.2454 13.0161C72.8977 13.1011 72.5408 13.1883 72.1748 13.2776C71.8088 13.3668 71.5554 13.4314 71.4145 13.4712C71.1086 13.5544 70.7925 13.6515 70.466 13.7625C70.4247 13.7585 70.4026 13.7414 70.3996 13.7113C70.3906 13.6807 70.3908 13.6182 70.4 13.5238L70.5419 12.0728C70.1131 12.5609 69.7103 12.9353 69.3334 13.1962C68.9507 13.4565 68.5706 13.5682 68.1931 13.5313C67.8923 13.5019 67.6564 13.3865 67.4856 13.1852C67.3141 12.9898 67.2417 12.7564 67.2682 12.4851C67.2919 12.2433 67.3855 12.047 67.5491 11.8963C67.7068 11.745 67.8948 11.68 68.113 11.7013C68.3371 11.7232 68.5541 11.8487 68.764 12.0776C68.9679 12.306 69.1348 12.4265 69.2645 12.4392C69.471 12.4594 69.741 12.3161 70.0747 12.0093C70.4079 11.7084 70.5917 11.381 70.6263 11.0271L71.0165 7.03691C71.0661 6.52966 70.9828 6.16423 70.7665 5.94061C70.5496 5.7229 70.1663 5.59311 69.6166 5.55127L69.6451 5.2593L74.0069 5.68585L73.9784 5.97782Z" fill="#333333"/>
<path d="M60.6158 13.6559C59.7835 13.73 59.0287 13.5058 58.3514 12.983C57.6746 12.4662 57.2892 11.6795 57.195 10.6228L62.8176 10.1217C62.6365 8.75747 62.2377 7.78748 61.6211 7.21174C61.0046 6.636 60.3126 6.38233 59.5452 6.45072C58.9254 6.50597 58.4174 6.71486 58.0214 7.07741C57.6253 7.43996 57.2738 7.93538 56.9668 8.56368L56.6474 8.48505C56.8226 7.71379 57.2154 6.97967 57.8256 6.28269C58.4299 5.58624 59.2132 5.19514 60.1754 5.10938C61.2851 5.01046 62.1814 5.35303 62.8641 6.13707C63.5409 6.92163 63.928 7.85995 64.0253 8.95201C64.1311 10.1385 63.8711 11.194 63.2455 12.1184C62.6198 13.0429 61.7433 13.5554 60.6158 13.6559ZM61.0717 12.9637C61.7447 12.9037 62.2317 12.5598 62.5327 11.9321C62.6932 11.5965 62.7932 11.183 62.8327 10.6916L59.0961 11.0246C59.2136 11.6091 59.365 12.0389 59.5501 12.3139C59.8857 12.8076 60.3929 13.0242 61.0717 12.9637Z" fill="#333333"/>
<path d="M51.3973 6.55008C50.9765 6.74586 50.7127 6.92284 50.6059 7.08102C50.4412 7.32309 50.4462 7.68665 50.6211 8.1717L52.1796 12.4953C52.3283 12.9079 52.4815 13.1582 52.6392 13.2463C52.7914 13.3363 52.9929 13.3361 53.2438 13.2457C53.3609 13.2035 53.4481 13.1657 53.5054 13.1325C53.5571 13.1012 53.617 13.0576 53.685 13.0016L53.7905 13.2943L53.2607 13.712C53.0694 13.8629 52.7598 14.1225 52.3319 14.491C51.9041 14.8594 51.6762 15.0486 51.6483 15.0587C51.6204 15.0687 51.5987 15.0608 51.5831 15.0349C51.5674 15.0091 51.5456 14.9571 51.5174 14.8791L51.1105 13.7501C50.7394 14.4508 50.3873 14.9683 50.0542 15.3025C49.7231 15.6424 49.3457 15.8887 48.922 16.0414C48.3477 16.2484 47.8202 16.218 47.3395 15.9504C47.0847 15.8028 46.8334 15.5689 46.5857 15.2488C46.3239 15.8156 46.0758 16.2547 45.8415 16.5659C45.4365 17.1025 44.958 17.4703 44.406 17.6692C43.5084 17.9928 42.7774 17.8436 42.2131 17.2218C41.8915 16.8715 41.57 16.2504 41.2484 15.3583L39.9974 11.8877C39.8547 11.4919 39.6709 11.2526 39.4458 11.17C39.2171 11.0949 38.8662 11.1174 38.3929 11.2376L38.3145 11.0202L42.0862 9.66065L42.1706 9.89482C41.7017 10.1143 41.419 10.3264 41.3228 10.5312C41.2209 10.738 41.2534 11.0728 41.4202 11.5355L42.7194 15.1399C42.9144 15.6807 43.1166 16.0583 43.3261 16.2725C43.6972 16.6553 44.1838 16.7382 44.7859 16.5212C45.1483 16.3905 45.4647 16.1411 45.7351 15.7727C45.8912 15.559 46.0645 15.2445 46.255 14.8293L44.7116 10.5475C44.5488 10.0959 44.3472 9.78118 44.1066 9.60329C43.8606 9.42741 43.478 9.42355 42.9591 9.59171L42.8807 9.37428L46.7193 7.99062L46.7977 8.20806C46.2921 8.46588 46.001 8.71569 45.9244 8.95751C45.8478 9.19932 45.9431 9.69098 46.2104 10.4325L47.0545 12.7741C47.3639 13.6327 47.6327 14.2036 47.8608 14.4868C48.2417 14.9668 48.7305 15.0993 49.327 14.8843C49.6671 14.7617 49.9675 14.5463 50.2281 14.2382C50.4907 13.9357 50.6932 13.5886 50.8356 13.1971L49.1866 8.62261C49.0339 8.19889 48.8559 7.93232 48.6527 7.82288C48.4439 7.71546 48.0903 7.74839 47.5921 7.92168L47.5138 7.70424L51.3189 6.33264L51.3973 6.55008Z" fill="#333333"/>
<path d="M34.0397 27.8634C34.2075 28.0552 34.285 28.2788 34.2721 28.5341C34.2593 28.7894 34.1547 29.0029 33.9584 29.1746C33.7666 29.3424 33.5433 29.4157 33.2886 29.3945C33.0332 29.3816 32.8197 29.2771 32.648 29.0808C32.4802 28.889 32.405 28.6635 32.4223 28.4043C32.4391 28.1534 32.5433 27.944 32.7351 27.7763C32.9314 27.6046 33.155 27.5271 33.4058 27.5439C33.6606 27.5651 33.8719 27.6716 34.0397 27.8634ZM27.5037 18.6637C27.0654 19.1258 26.8346 19.4695 26.8111 19.6947C26.7916 19.9244 27.0101 20.3002 27.4666 20.8221L30.2586 24.0136C30.5122 24.3035 30.7078 24.4867 30.8455 24.5631C31.0724 24.6875 31.2929 24.656 31.507 24.4687C31.5561 24.4258 31.6013 24.3784 31.6425 24.3265C31.6793 24.2786 31.7819 24.1258 31.9503 23.8683L32.1318 24.0757L31.926 24.4211C31.3678 25.3582 30.9914 26.026 30.7968 26.4246C30.7188 26.5874 30.6619 26.6844 30.6262 26.7156C30.59 26.6922 30.5562 26.6627 30.525 26.627L26.3225 21.823C25.8777 21.3145 25.5384 21.0482 25.3049 21.0242C25.0668 21.0041 24.7158 21.1655 24.2519 21.5083L24.088 21.3209L27.3398 18.4763L27.5037 18.6637Z" fill="#333333"/>
<path d="M20.2082 27.8296C19.7961 27.7019 19.4174 27.6947 19.0723 27.808C18.7281 27.9296 18.428 28.1535 18.1717 28.4798C17.7764 28.9831 17.6891 29.6078 17.9096 30.3537C18.1312 31.1079 18.6894 31.8364 19.5843 32.5391C20.4419 33.2126 21.2292 33.5295 21.9462 33.4897C22.6595 33.4545 23.2083 33.1923 23.5927 32.7029C23.8635 32.3579 24.0034 31.9591 24.0123 31.5064C24.0258 31.0574 23.93 30.7524 23.7249 30.5913L20.2082 27.8296ZM17.7802 22.3286C17.4641 22.7887 17.3395 23.1392 17.4065 23.3802C17.4698 23.6258 17.6716 23.8822 18.0118 24.1494L24.7237 29.4202C25.0779 29.6984 25.3388 29.8316 25.5062 29.8199C25.6746 29.8166 25.8522 29.696 26.0388 29.4583C26.0791 29.407 26.1152 29.3563 26.1472 29.306C26.1754 29.2604 26.2155 29.1901 26.2674 29.0953L26.4981 29.2764L26.1933 30.1108C26.1797 30.1378 25.9726 30.7325 25.5721 31.895C25.5538 31.9183 25.5294 31.9254 25.4988 31.9165C25.4691 31.9158 25.4403 31.9045 25.4124 31.8825L24.4685 31.1413C24.5346 31.6905 24.5507 32.1402 24.5168 32.4904C24.4484 33.1149 24.2403 33.6485 23.8926 34.0913C23.3875 34.7345 22.6787 35.0709 21.7664 35.1004C20.855 35.1383 19.9239 34.7839 18.9731 34.0372C18.0409 33.3051 17.4145 32.3611 17.094 31.2052C16.7698 30.0539 16.939 29.0564 17.6015 28.2128C17.8065 27.9518 18.0166 27.7513 18.2319 27.6115C18.5641 27.39 18.9595 27.256 19.4181 27.2092L17.1319 25.4139C16.6612 25.0442 16.3118 24.8942 16.0838 24.9638C15.8558 25.0334 15.52 25.3123 15.0764 25.8004L14.8317 25.6082L17.5495 22.1474L17.7802 22.3286Z" fill="#333333"/>
<path d="M15.0916 37.2454L14.9614 37.5083C14.2955 37.3304 13.7493 37.2648 13.3227 37.3114C12.5438 37.3884 11.9767 37.7854 11.6215 38.5023C11.4242 38.9005 11.3778 39.2678 11.4823 39.604C11.5896 39.9482 11.8185 40.2071 12.1689 40.3808C12.392 40.4913 12.6399 40.5315 12.9128 40.5013C13.1857 40.4712 13.5033 40.3375 13.8655 40.1003L14.8173 39.4608C15.4915 38.9813 16.0827 38.6757 16.5911 38.544C17.0995 38.4123 17.5954 38.4662 18.0786 38.7057C18.6733 39.0004 19.0566 39.4549 19.2285 40.0691C19.4003 40.6834 19.327 41.3118 19.0086 41.9543C18.8692 42.2358 18.6635 42.5175 18.3915 42.7994C18.1169 43.0866 17.969 43.2515 17.948 43.294C17.9006 43.3895 17.8797 43.4652 17.8852 43.5208C17.8907 43.5764 17.9148 43.6347 17.9574 43.6955L17.8627 43.8866L15.6127 42.8412L15.7351 42.5943C16.3028 42.7433 16.7747 42.7986 17.151 42.7601C17.8451 42.694 18.3461 42.3503 18.654 41.729C18.8382 41.3573 18.8687 41.0087 18.7457 40.6831C18.6226 40.3575 18.407 40.1185 18.099 39.9658C17.6105 39.7238 16.9935 39.8744 16.248 40.4178L15.1615 41.189C13.985 42.0148 12.9879 42.2251 12.1701 41.8199C11.5435 41.5094 11.1482 41.0192 10.9841 40.3492C10.8174 39.6846 10.9222 38.9726 11.2984 38.2132C11.4563 37.8946 11.6883 37.5598 11.9945 37.2089C12.3007 36.8579 12.4722 36.6453 12.5091 36.5709C12.5406 36.5072 12.5444 36.4396 12.5203 36.3681C12.5015 36.2993 12.4668 36.2358 12.4162 36.1777L12.5188 35.9706L15.0916 37.2454Z" fill="#333333"/>
<path d="M15.402 50.5194L9.89577 49.0876C9.50575 48.9862 9.17898 48.9594 8.91548 49.0073C8.42439 49.1061 8.10501 49.4395 7.95736 50.0073C7.85594 50.3973 7.88581 50.8123 8.04697 51.2523C8.13518 51.5018 8.27713 51.7683 8.47283 52.0519L13.1876 53.2779C13.6292 53.3927 13.9412 53.382 14.1236 53.2457C14.306 53.1094 14.4787 52.7869 14.6416 52.2782L14.9255 52.352L14.2029 55.1309L8.14602 53.556C7.75599 53.4545 7.46852 53.4533 7.28359 53.5521C7.10292 53.6583 6.96227 53.9401 6.86165 54.3977L6.62075 54.3351C6.61675 53.9972 6.61119 53.7478 6.60408 53.5867C6.60271 53.4271 6.59016 53.1575 6.56642 52.7778C6.55358 52.6153 6.51527 52.2563 6.45151 51.7008C6.45896 51.6721 6.47778 51.6586 6.50795 51.6604C6.53238 51.6606 6.56181 51.6652 6.59622 51.6741L7.98139 52.0343C7.61822 51.5235 7.36655 51.0784 7.22638 50.699C7.00901 50.122 6.97117 49.561 7.11286 49.0162C7.24261 48.5171 7.54272 48.0931 8.01317 47.7439C8.47938 47.3875 9.12546 47.3167 9.9514 47.5314L14.4166 48.6925C14.8755 48.8118 15.2077 48.7941 15.4133 48.6394C15.5436 48.5385 15.6825 48.2869 15.8301 47.8843L16.071 47.947L15.402 50.5194Z" fill="#333333"/>
<path d="M5.23348 58.8948C5.27917 59.3567 5.35901 59.6642 5.47301 59.8172C5.64703 60.0527 5.99182 60.1681 6.5074 60.1634L11.1032 60.1216C11.5417 60.1176 11.8286 60.0557 11.9638 59.936C12.0991 59.8221 12.1655 59.6319 12.1631 59.3652C12.1619 59.2407 12.1552 59.146 12.1427 59.0809C12.1303 59.0217 12.1089 58.9508 12.0785 58.8681L12.3897 58.8653L12.6088 59.5034C12.688 59.7338 12.8307 60.1118 13.037 60.6374C13.2433 61.163 13.3466 61.4406 13.3468 61.4702C13.3471 61.4999 13.3324 61.5178 13.3029 61.524C13.2733 61.5302 13.217 61.5336 13.134 61.5344L11.934 61.5453C12.4727 62.1272 12.8447 62.6305 13.0501 63.0554C13.2614 63.4802 13.3691 63.9178 13.3732 64.3681C13.3787 64.9785 13.1758 65.4664 12.7642 65.8316C12.5407 66.0233 12.237 66.1832 11.8529 66.3111C12.3014 66.7456 12.6337 67.1248 12.85 67.4488C13.2226 68.0085 13.4115 68.5817 13.4169 69.1683C13.4256 70.1225 13.0432 70.7631 12.2698 71.0901C11.8329 71.2778 11.1404 71.376 10.1922 71.3846L6.50314 71.4182C6.08238 71.422 5.7958 71.5165 5.64339 71.7016C5.49696 71.8926 5.40225 72.2313 5.35926 72.7177L5.12814 72.7198L5.09166 68.7107L5.34056 68.7084C5.39266 69.2236 5.49944 69.5604 5.66091 69.719C5.82242 69.8835 6.14912 69.9635 6.64099 69.959L10.4723 69.9241C11.0471 69.9189 11.4703 69.8528 11.7417 69.7259C12.2257 69.5022 12.4648 69.0703 12.4589 68.4303C12.4554 68.0451 12.3245 67.664 12.0663 67.2871C11.9161 67.0691 11.6766 66.8017 11.3478 66.4846L6.79644 66.526C6.31642 66.5304 5.95271 66.6167 5.70533 66.7849C5.45799 66.959 5.32791 67.3188 5.3151 67.8641L5.08397 67.8662L5.04685 63.786L5.27797 63.7839C5.3542 64.3463 5.49377 64.7036 5.69666 64.8558C5.89955 65.0081 6.39509 65.0806 7.18327 65.0734L9.67227 65.0508C10.5849 65.0425 11.2125 64.9775 11.5552 64.8559C12.1342 64.655 12.4208 64.2375 12.415 63.6034C12.4117 63.2419 12.3077 62.8873 12.1031 62.5395C11.9043 62.1916 11.6437 61.8858 11.3213 61.622L6.45885 61.6663C6.00846 61.6704 5.69803 61.7502 5.52758 61.9059C5.35717 62.0675 5.27141 62.412 5.27028 62.9395L5.03916 62.9416L5.00235 58.8969L5.23348 58.8948Z" fill="#333333"/>
<path d="M17.7384 85.8586C17.9124 86.2547 17.9854 86.6564 17.9572 87.0637C17.9386 87.3308 17.873 87.6088 17.7605 87.8977L20.3486 86.7606C20.6795 86.6152 20.8907 86.4771 20.9822 86.3463C21.076 86.2209 21.0621 86.0199 20.9405 85.7432C20.9119 85.678 20.8841 85.6223 20.8572 85.5758C20.8304 85.5294 20.7718 85.4256 20.6817 85.2646L20.9502 85.1466L21.4144 85.7388C21.5868 85.9544 21.7619 86.1688 21.9397 86.3819C22.1175 86.5951 22.2795 86.7796 22.4256 86.9355C22.4909 87.0104 22.6056 87.1315 22.7698 87.2989L22.775 87.3549L21.9133 87.7141C21.6016 87.8445 21.2791 87.9798 20.9458 88.1198C20.6178 88.2574 20.2938 88.3965 19.9737 88.5372L13.3172 91.4424C12.9645 91.5974 12.7367 91.7493 12.6338 91.8981C12.5309 92.0469 12.5617 92.3084 12.7261 92.6828C12.7524 92.7425 12.7786 92.8022 12.8048 92.8619C12.8365 92.9192 12.8708 92.9753 12.9079 93.0302L12.6393 93.1482C12.6142 93.1204 12.3057 92.7866 11.7139 92.1469L10.6723 91.0801L10.7205 90.9909L11.7215 90.5511C11.2571 90.3927 10.9054 90.2332 10.6666 90.0728C10.2484 89.784 9.9249 89.3791 9.69604 88.8582C9.29077 87.9358 9.31717 87.0309 9.77525 86.1435C10.2411 85.2591 10.9434 84.6107 11.8821 84.1983C13.0595 83.681 14.2189 83.5794 15.3602 83.8935C16.5094 84.2107 17.3022 84.8657 17.7384 85.8586ZM10.904 89.2208C11.09 89.644 11.3649 89.931 11.729 90.0818C12.093 90.2325 12.3862 90.2591 12.6087 90.1613L16.1002 88.6272C16.8055 88.3173 17.2185 87.9093 17.3392 87.4031C17.4677 86.9 17.4533 86.4694 17.296 86.1113C16.9956 85.4277 16.4581 85.0294 15.6835 84.9166C14.9144 84.8014 14.0876 84.9381 13.2032 85.3267C12.3297 85.7106 11.6393 86.2534 11.132 86.9553C10.6272 87.6626 10.5512 88.4178 10.904 89.2208Z" fill="#333333"/>
<path d="M17.6083 95.0839C18.5596 94.3867 19.5833 94.0992 20.6796 94.2216C21.7842 94.3451 22.6851 94.8825 23.3823 95.8338C24.0759 96.7802 24.3398 97.7918 24.1739 98.8687C24.0079 99.9455 23.4087 100.862 22.3762 101.619C21.425 102.316 20.3773 102.621 19.2332 102.534C18.0891 102.447 17.1667 101.925 16.4661 100.969C15.7934 100.051 15.5611 99.0275 15.7691 97.8978C15.9771 96.7681 16.5902 95.8301 17.6083 95.0839ZM22.8049 95.9483C22.5281 95.5707 22.1639 95.3343 21.7121 95.2393C20.9268 95.0801 20.0012 95.3911 18.9352 96.1724C18.0844 96.796 17.431 97.5688 16.9752 98.4907C16.5228 99.4174 16.5472 100.223 17.0482 100.906C17.4406 101.441 17.988 101.672 18.6906 101.598C19.3966 101.529 20.1488 101.202 20.947 100.617C21.774 100.01 22.4182 99.2553 22.8798 98.3513C23.3414 97.4472 23.3164 96.6462 22.8049 95.9483Z" fill="#333333"/>
<path d="M22.6311 107.454C23.0701 107.791 23.4177 107.966 23.6739 107.978C23.9341 107.986 24.2322 107.811 24.5682 107.452L30.5006 101.108C30.7678 100.822 30.9282 100.603 30.9817 100.451C31.0652 100.188 30.9749 99.9329 30.7109 99.686C30.6503 99.6293 30.5771 99.5731 30.4914 99.5172C30.41 99.4654 30.303 99.4019 30.1705 99.3267L30.3709 99.1124C31.101 99.5031 31.9987 99.9531 33.064 100.463C33.0943 100.491 33.0994 100.52 33.0795 100.55C33.0638 100.584 33.0155 100.644 32.9346 100.731L25.6542 108.516C25.302 108.892 25.1382 109.198 25.1628 109.432C25.1915 109.661 25.3951 109.982 25.7736 110.392L25.6036 110.574L22.4611 107.635L22.6311 107.454Z" fill="#333333"/>
<path d="M31.7375 110.372C32.3695 109.377 33.2183 108.736 34.2838 108.451C35.3576 108.164 36.3923 108.336 37.388 108.968C38.3787 109.597 38.9929 110.443 39.2305 111.506C39.4681 112.57 39.2439 113.642 38.5579 114.723C37.9259 115.718 37.0613 116.384 35.964 116.719C34.8667 117.055 33.8177 116.905 32.8169 116.27C31.8562 115.66 31.267 114.791 31.0493 113.663C30.8317 112.535 31.061 111.438 31.7375 110.372ZM36.892 109.285C36.4967 109.034 36.0714 108.947 35.6161 109.023C34.8267 109.16 34.0779 109.787 33.3697 110.903C32.8044 111.794 32.4773 112.751 32.3885 113.776C32.3048 114.804 32.6206 115.545 33.3361 115.999C33.8965 116.355 34.4904 116.37 35.1178 116.045C35.7501 115.724 36.3314 115.145 36.8618 114.309C37.4112 113.444 37.7363 112.506 37.8369 111.496C37.9375 110.486 37.6226 109.749 36.892 109.285Z" fill="#333333"/>
<path d="M40.6626 119.933C41.1877 120.087 41.5589 120.13 41.7763 120.063C41.9958 119.989 42.1919 119.732 42.3646 119.29L43.8246 115.557C44.0383 115.01 44.138 114.6 44.1238 114.328C44.1173 114.051 43.9788 113.86 43.7083 113.755C43.6531 113.733 43.5754 113.712 43.4751 113.692C43.3824 113.669 43.2821 113.649 43.1741 113.632L43.281 113.359C43.6388 113.371 44.0059 113.384 44.3824 113.398C44.7589 113.411 45.0203 113.418 45.1667 113.418C45.4836 113.421 45.8143 113.414 46.1586 113.396C46.1973 113.411 46.214 113.433 46.2087 113.463C46.2089 113.495 46.1918 113.555 46.1573 113.643L45.6263 115.001C46.1716 114.648 46.6611 114.397 47.0947 114.248C47.5337 114.102 47.9299 114.098 48.2831 114.236C48.5646 114.346 48.7602 114.521 48.87 114.761C48.9818 114.996 48.9881 115.24 48.8888 115.494C48.8004 115.72 48.6569 115.884 48.4585 115.984C48.2656 116.087 48.067 116.099 47.8628 116.019C47.6531 115.937 47.4783 115.757 47.3386 115.48C47.2044 115.205 47.0766 115.043 46.9552 114.996C46.762 114.92 46.4632 114.985 46.0586 115.189C45.6563 115.388 45.3904 115.653 45.2609 115.984L43.8008 119.718C43.6152 120.193 43.5961 120.567 43.7435 120.841C43.893 121.11 44.2266 121.339 44.7442 121.529L44.6374 121.802L40.5558 120.206L40.6626 119.933Z" fill="#333333"/>
<path d="M59.4185 122.389L59.7114 122.405C59.8128 123.086 59.9697 123.614 60.1819 123.986C60.5621 124.671 61.1517 125.033 61.9507 125.074C62.3946 125.097 62.7501 124.994 63.017 124.764C63.2903 124.529 63.4369 124.216 63.457 123.826C63.4698 123.577 63.4082 123.334 63.2721 123.095C63.136 122.857 62.8871 122.618 62.5255 122.38L61.5604 121.761C60.8526 121.333 60.3372 120.912 60.0143 120.497C59.6914 120.083 59.5439 119.607 59.5716 119.068C59.6057 118.405 59.8704 117.873 60.3659 117.471C60.8613 117.069 61.4671 116.887 62.1832 116.924C62.4969 116.94 62.8371 117.017 63.2039 117.154C63.5766 117.292 63.7866 117.362 63.834 117.365C63.9405 117.37 64.0182 117.359 64.0671 117.332C64.116 117.305 64.1598 117.26 64.1987 117.197L64.4118 117.208L64.3464 119.688L64.0712 119.674C63.9824 119.093 63.8456 118.638 63.6608 118.308C63.3243 117.698 62.8098 117.374 62.1174 117.339C61.7031 117.317 61.371 117.428 61.1211 117.67C60.8713 117.913 60.7375 118.205 60.7199 118.549C60.6919 119.093 61.0753 119.6 61.8701 120.068L63.0096 120.758C64.2349 121.51 64.8241 122.341 64.7772 123.253C64.7413 123.951 64.4485 124.509 63.8989 124.925C63.3552 125.343 62.6602 125.529 61.8138 125.486C61.4587 125.467 61.0593 125.388 60.6156 125.246C60.1719 125.105 59.9086 125.032 59.8257 125.027C59.7547 125.024 59.6912 125.047 59.6352 125.098C59.5795 125.142 59.535 125.199 59.5017 125.269L59.2709 125.257L59.4185 122.389Z" fill="#333333"/>
<path d="M69.9884 113.715C69.9574 113.462 70.0189 113.233 70.173 113.029C70.3271 112.825 70.5335 112.707 70.7923 112.676C71.0453 112.645 71.2712 112.709 71.47 112.87C71.674 113.024 71.7919 113.231 71.8237 113.489C71.8547 113.742 71.7903 113.971 71.6303 114.176C71.4755 114.374 71.2716 114.489 71.0186 114.52C70.7598 114.551 70.5314 114.49 70.3332 114.335C70.1344 114.174 70.0194 113.968 69.9884 113.715ZM70.2266 124.997C70.8488 124.861 71.2328 124.707 71.3788 124.533C71.524 124.354 71.5544 123.921 71.4699 123.233L70.9534 119.024C70.9065 118.641 70.8475 118.38 70.7765 118.239C70.6587 118.009 70.4586 117.911 70.1763 117.946C70.1116 117.954 70.0476 117.968 69.9843 117.987C69.9269 118.006 69.7562 118.075 69.4722 118.193L69.4387 117.92L69.8029 117.75C70.7912 117.288 71.4778 116.947 71.8627 116.727C72.0188 116.636 72.1203 116.588 72.1674 116.582C72.1842 116.622 72.1955 116.665 72.2013 116.712L72.9787 123.047C73.061 123.718 73.192 124.129 73.3718 124.28C73.5574 124.43 73.9384 124.494 74.5148 124.471L74.5451 124.718L70.2569 125.244L70.2266 124.997Z" fill="#333333"/>
<path d="M81.2891 114.705L81.4637 115.321L79.7191 115.815L81.099 120.746C81.2219 121.18 81.352 121.497 81.4891 121.698C81.7376 122.053 82.0613 122.174 82.4604 122.061C82.6657 122.002 82.8287 121.904 82.9494 121.765C83.0759 121.624 83.2061 121.421 83.3402 121.155L83.6159 121.28L83.5005 121.59C83.3172 122.073 83.0837 122.444 82.7999 122.704C82.5161 122.963 82.2202 123.136 81.9123 123.223C81.2395 123.414 80.6985 123.244 80.2893 122.713C80.066 122.426 79.8727 121.994 79.7093 121.418L78.2395 116.235L77.3073 116.499C77.2739 116.49 77.2463 116.48 77.2243 116.468C77.2081 116.454 77.1959 116.433 77.1878 116.404C77.1716 116.347 77.1709 116.301 77.1856 116.266C77.2044 116.224 77.2661 116.126 77.3706 115.973C77.6718 115.537 77.8797 115.194 77.9941 114.946C78.1127 114.691 78.3712 114.039 78.7697 112.989C78.8438 112.968 78.8882 112.962 78.9028 112.97C78.9231 112.977 78.9438 113.017 78.9648 113.091L79.5615 115.195L81.2891 114.705Z" fill="#333333"/>
<path d="M97.1538 110.324C96.7172 110.894 96.3918 111.416 96.1778 111.892C95.7692 112.808 95.7533 113.543 96.1301 114.097C96.4336 114.542 96.804 114.771 97.2414 114.781C97.5258 114.788 97.7856 114.712 98.0208 114.552C98.3441 114.332 98.591 114.031 98.7616 113.65C98.937 113.265 98.9297 112.933 98.7396 112.654L97.1538 110.324ZM95.1673 115.494C94.6837 114.784 94.6353 113.949 95.0222 112.99C95.2728 112.39 95.9 111.378 96.9037 109.957L96.4785 109.332C96.1383 108.832 95.8525 108.518 95.6212 108.389C95.2312 108.174 94.7741 108.245 94.2499 108.602C94 108.772 93.8058 108.997 93.6671 109.278C93.5318 109.564 93.5425 109.822 93.6993 110.052C93.7393 110.111 93.8199 110.203 93.9411 110.328C94.059 110.449 94.1313 110.528 94.1579 110.568C94.3447 110.842 94.3841 111.095 94.2762 111.326C94.2167 111.46 94.1159 111.575 93.9738 111.672C93.7534 111.822 93.536 111.866 93.3217 111.804C93.1041 111.737 92.9353 111.615 92.8152 111.439C92.5817 111.096 92.549 110.595 92.7168 109.936C92.8862 109.268 93.38 108.656 94.1981 108.099C95.1486 107.452 96.0029 107.322 96.7611 107.709C97.1725 107.924 97.5983 108.355 98.0385 109.001L100.045 111.948C100.238 112.232 100.391 112.415 100.503 112.496C100.697 112.644 100.895 112.649 101.095 112.512C101.208 112.436 101.29 112.355 101.34 112.271C101.39 112.187 101.46 112.017 101.552 111.761L101.812 112.143C101.785 112.441 101.723 112.713 101.625 112.959C101.477 113.331 101.261 113.615 100.977 113.808C100.644 114.035 100.328 114.092 100.03 113.98C99.736 113.864 99.48 113.662 99.2619 113.373C99.1097 113.95 98.9547 114.407 98.7968 114.744C98.5311 115.312 98.1974 115.733 97.7957 116.006C97.3744 116.293 96.9093 116.395 96.4006 116.311C95.8885 116.222 95.4774 115.95 95.1673 115.494Z" fill="#333333"/>
<path d="M105.878 109.808C106.15 109.432 106.294 109.149 106.31 108.959C106.336 108.667 106.155 108.352 105.766 108.014L102.299 104.997C101.968 104.709 101.712 104.565 101.531 104.565C101.355 104.561 101.179 104.659 101.004 104.86C100.922 104.954 100.864 105.029 100.83 105.086C100.8 105.139 100.769 105.206 100.737 105.288L100.502 105.084L100.762 104.461C100.855 104.236 100.999 103.859 101.193 103.328C101.388 102.798 101.494 102.522 101.514 102.5C101.533 102.477 101.556 102.474 101.582 102.489C101.609 102.504 101.653 102.538 101.716 102.593L102.621 103.38C102.604 102.588 102.659 101.964 102.787 101.51C102.911 101.052 103.12 100.653 103.416 100.313C103.817 99.8528 104.292 99.6223 104.843 99.6219C105.137 99.6266 105.47 99.7085 105.843 99.8675C105.795 99.2449 105.798 98.7406 105.851 98.3546C105.943 97.6887 106.182 97.1344 106.567 96.6918C107.193 95.972 107.904 95.7462 108.7 96.0143C109.152 96.1636 109.735 96.5494 110.45 97.1719L113.234 99.5935C113.551 99.8697 113.828 99.989 114.065 99.9516C114.301 99.9058 114.597 99.7151 114.952 99.3796L115.126 99.5313L112.494 102.556L112.306 102.393C112.609 101.972 112.753 101.65 112.737 101.424C112.725 101.194 112.534 100.917 112.163 100.594L109.272 98.0792C108.838 97.7018 108.478 97.4706 108.191 97.3856C107.68 97.232 107.215 97.3967 106.795 97.8795C106.542 98.1701 106.387 98.5421 106.33 98.9956C106.298 99.2582 106.3 99.6173 106.336 100.073L109.769 103.06C110.132 103.375 110.461 103.552 110.758 103.59C111.058 103.624 111.394 103.441 111.766 103.041L111.94 103.193L109.262 106.271L109.087 106.12C109.403 105.648 109.536 105.288 109.485 105.04C109.434 104.791 109.111 104.408 108.516 103.891L106.639 102.257C105.95 101.658 105.437 101.29 105.1 101.154C104.534 100.92 104.042 101.043 103.626 101.521C103.389 101.794 103.231 102.128 103.154 102.524C103.072 102.916 103.064 103.318 103.13 103.729L106.799 106.921C107.139 107.217 107.424 107.363 107.655 107.36C107.889 107.352 108.182 107.151 108.533 106.757L108.707 106.908L106.052 109.96L105.878 109.808Z" fill="#333333"/>
<path d="M111.661 88.2185C112.031 87.4694 112.615 86.9418 113.414 86.636C114.208 86.3274 115.08 86.4082 116.031 86.8782L113.531 91.9389C114.789 92.4949 115.825 92.6597 116.638 92.4332C117.45 92.2068 118.027 91.7482 118.369 91.0575C118.644 90.4996 118.731 89.9572 118.627 89.4303C118.524 88.9033 118.284 88.3452 117.908 87.7559L118.142 87.5243C118.709 88.0755 119.131 88.7932 119.408 89.6771C119.688 90.5557 119.614 91.4281 119.186 92.2941C118.692 93.293 117.933 93.8796 116.908 94.054C115.886 94.2231 114.883 94.0648 113.9 93.5791C112.832 93.0513 112.066 92.2797 111.603 91.2641C111.14 90.2485 111.159 89.2333 111.661 88.2185ZM112.014 88.9682C111.715 89.5739 111.754 90.1688 112.134 90.7527C112.336 91.0645 112.637 91.3653 113.036 91.6549L114.698 88.2918C114.138 88.0876 113.692 87.993 113.361 88.0078C112.765 88.0371 112.316 88.3572 112.014 88.9682Z" fill="#333333"/>
<path d="M115.701 77.671L116.316 77.8473L115.817 79.5907L120.734 81.018C121.167 81.142 121.505 81.1989 121.749 81.1885C122.181 81.1643 122.454 80.9529 122.569 80.5541C122.627 80.349 122.63 80.1585 122.575 79.9826C122.522 79.801 122.418 79.5832 122.263 79.3291L122.515 79.1608L122.717 79.4222C123.031 79.8328 123.223 80.2269 123.294 80.6047C123.364 80.9824 123.356 81.3252 123.268 81.6328C123.075 82.3051 122.645 82.6752 121.978 82.7431C121.616 82.7811 121.147 82.7176 120.572 82.5528L115.393 81.0691L115.126 82.0006C115.101 82.0242 115.077 82.0421 115.055 82.0543C115.035 82.0608 115.011 82.0599 114.982 82.0518C114.925 82.0354 114.886 82.0118 114.864 81.9808C114.838 81.9426 114.787 81.8387 114.713 81.6694C114.5 81.1832 114.319 80.8261 114.169 80.5981C114.014 80.3627 113.596 79.7991 112.915 78.9072C112.936 78.8331 112.954 78.792 112.968 78.7839C112.985 78.7701 113.03 78.7738 113.104 78.795L115.206 79.3973L115.701 77.671Z" fill="#333333"/>
<path d="M124.946 70.9396C125.539 71.0179 126.063 71.3052 126.518 71.8016C126.972 72.2979 127.279 72.8076 127.437 73.3306L127.062 73.4516C126.819 72.8456 126.527 72.4125 126.185 72.1521C125.843 71.8859 125.549 71.7365 125.302 71.7039C125.22 71.6931 125.164 71.7125 125.133 71.7623C125.103 71.8121 125.084 71.8664 125.076 71.9251L125.06 72.5237C125.027 72.7705 124.918 72.9863 124.732 73.171C124.54 73.3549 124.292 73.4267 123.986 73.3864C123.751 73.3554 123.533 73.2399 123.333 73.0401C123.132 72.8402 123.057 72.5464 123.108 72.1586C123.157 71.7885 123.348 71.4759 123.68 71.2209C124.007 70.9651 124.429 70.8713 124.946 70.9396Z" fill="#333333"/>
<path d="M116.044 55.4597C115.908 54.7314 115.981 54.0698 116.263 53.475C116.537 52.8755 116.899 52.5341 117.347 52.4507C117.54 52.415 117.733 52.4484 117.926 52.5511C118.115 52.6548 118.235 52.8464 118.286 53.1261C118.324 53.3301 118.288 53.5237 118.177 53.707C118.066 53.8845 117.882 54.0331 117.627 54.1528L117.227 54.3356C116.933 54.4687 116.738 54.6404 116.645 54.8507C116.558 55.0657 116.544 55.3305 116.603 55.6452C116.726 56.3094 117.122 56.8176 117.79 57.1696C118.451 57.5169 119.263 57.6013 120.224 57.4227C121.104 57.2592 121.847 56.8619 122.453 56.2309C123.058 55.5941 123.281 54.8474 123.122 53.9909C123.009 53.3849 122.711 52.8828 122.227 52.4844C121.95 52.2586 121.532 52.0227 120.974 51.7768L121.077 51.5045C121.838 51.7067 122.457 51.9534 122.933 52.2447C123.845 52.8047 124.387 53.5479 124.559 54.4744C124.728 55.3833 124.519 56.254 123.932 57.0864C123.345 57.9187 122.437 58.4491 121.208 58.6775C120.002 58.9016 118.893 58.7127 117.883 58.1107C116.873 57.5087 116.26 56.625 116.044 55.4597Z" fill="#333333"/>
<path d="M118.483 47.4366C117.395 47.8913 116.332 47.9306 115.295 47.5547C114.25 47.1755 113.501 46.4418 113.046 45.3536C112.594 44.2709 112.574 43.2256 112.988 42.2177C113.402 41.2098 114.2 40.4591 115.381 39.9655C116.469 39.5109 117.559 39.4601 118.651 39.8132C119.742 40.1664 120.517 40.8898 120.974 41.9834C121.412 43.0333 121.398 44.083 120.931 45.1324C120.464 46.1819 119.648 46.9499 118.483 47.4366ZM113.634 45.3777C113.815 45.8097 114.113 46.1248 114.53 46.3232C115.256 46.6621 116.229 46.5768 117.448 46.0673C118.422 45.6606 119.238 45.0625 119.897 44.2732C120.555 43.4784 120.72 42.69 120.393 41.9081C120.137 41.2956 119.659 40.943 118.959 40.8503C118.256 40.752 117.448 40.8937 116.535 41.2753C115.589 41.6706 114.786 42.2535 114.125 43.0241C113.464 43.7948 113.301 44.5793 113.634 45.3777Z" fill="#333333"/>
<path d="M116.596 34.1872C116.31 33.8741 116.056 33.6942 115.834 33.6474C115.605 33.5992 115.267 33.7322 114.821 34.0465L111.138 36.6442C110.828 36.8629 110.631 37.0456 110.546 37.1926C110.427 37.4144 110.468 37.6682 110.67 37.9539C110.7 37.9975 110.735 38.0418 110.774 38.0868C110.81 38.127 110.856 38.1775 110.914 38.2385L110.66 38.4178C110.461 38.2603 109.98 37.8964 109.215 37.3262L108.508 36.8022C108.484 36.7683 108.483 36.7404 108.504 36.7185C108.521 36.6917 108.552 36.6629 108.595 36.6322L109.663 35.879C108.932 35.7272 108.401 35.5801 108.068 35.4375C107.564 35.2272 107.169 34.9186 106.882 34.5118C106.65 34.1824 106.532 33.8156 106.53 33.4111C106.529 32.6285 107.001 31.9041 107.945 31.238L111.338 28.8452C111.686 28.5992 111.889 28.3514 111.945 28.1016C112.001 27.8519 111.915 27.5606 111.687 27.2279L111.891 27.0844L114.079 30.1864L113.875 30.3298C113.577 30.0104 113.306 29.8318 113.062 29.7938C112.813 29.7593 112.441 29.9162 111.947 30.2646L108.845 32.4525C108.429 32.7462 108.14 33.0663 107.978 33.4125C107.811 33.7622 107.875 34.1453 108.168 34.5618C108.37 34.8475 108.672 35.0698 109.074 35.2286C109.301 35.3147 109.636 35.398 110.077 35.4784L114.145 32.6091C114.493 32.3631 114.674 32.12 114.685 31.8796C114.692 31.6427 114.583 31.3537 114.357 31.0127L114.56 30.8692L116.799 34.0438L116.596 34.1872Z" fill="#333333"/>
<path d="M106.424 25.2784L106.209 25.0782C106.57 24.4913 106.79 23.9868 106.868 23.5648C107.017 22.7965 106.799 22.1394 106.215 21.5936C105.89 21.2903 105.551 21.1406 105.199 21.1444C104.838 21.1484 104.525 21.2935 104.258 21.5794C104.088 21.7614 103.979 21.9874 103.929 22.2575C103.88 22.5276 103.917 22.8701 104.04 23.2852L104.38 24.3804C104.646 25.1637 104.769 25.8178 104.75 26.3426C104.73 26.8674 104.536 27.327 104.168 27.7213C103.715 28.2065 103.17 28.4434 102.532 28.4319C101.895 28.4204 101.314 28.1701 100.789 27.6808C100.56 27.4665 100.349 27.1887 100.157 26.8473C99.9603 26.5019 99.8448 26.313 99.8101 26.2806C99.7321 26.2078 99.6657 26.1661 99.6108 26.1554C99.5559 26.1447 99.4932 26.1511 99.4228 26.1745L99.2668 26.0289L100.913 24.1732L101.115 24.3612C100.809 24.8623 100.621 25.2987 100.55 25.6701C100.414 26.3541 100.6 26.9326 101.107 27.4057C101.41 27.6887 101.735 27.8179 102.083 27.7934C102.43 27.7688 102.721 27.6308 102.955 27.3795C103.327 26.9809 103.36 26.3466 103.053 25.4767L102.626 24.2146C102.172 22.8508 102.256 21.8352 102.879 21.168C103.356 20.6567 103.939 20.4185 104.628 20.4534C105.312 20.4842 105.964 20.7888 106.584 21.367C106.844 21.6096 107.098 21.9278 107.347 22.3218C107.595 22.7157 107.75 22.941 107.81 22.9976C107.862 23.0461 107.926 23.0691 108.001 23.0665C108.073 23.0682 108.143 23.0532 108.214 23.0214L108.383 23.1791L106.424 25.2784Z" fill="#333333"/>
<path d="M35.2408 13.3665C34.8083 13.7019 34.556 13.9776 34.4837 14.1935C34.4147 14.4144 34.5087 14.724 34.7657 15.1224L36.9396 18.4912C37.2577 18.9841 37.5315 19.3047 37.7611 19.4528C37.9889 19.6091 38.2248 19.6085 38.4688 19.451C38.5186 19.4189 38.581 19.368 38.656 19.2985C38.7293 19.2371 38.8043 19.1675 38.8811 19.0898L39.0401 19.3363C38.8206 19.619 38.5951 19.9091 38.3638 20.2065C38.1325 20.5038 37.9741 20.7119 37.8885 20.8306C37.7005 21.0859 37.5132 21.3584 37.3264 21.6482C37.2915 21.6707 37.2636 21.6711 37.2425 21.6495C37.2165 21.631 37.1778 21.5819 37.1264 21.5022L36.3359 20.2772C36.3032 20.9261 36.2202 21.4698 36.0871 21.9084C35.949 22.3501 35.7206 22.6739 35.4019 22.8795C35.1479 23.0434 34.8915 23.0996 34.6325 23.048C34.3768 23.0015 34.175 22.8637 34.0272 22.6346C33.8954 22.4304 33.8468 22.2185 33.8813 21.9987C33.9109 21.7821 34.0178 21.6144 34.202 21.4955C34.3912 21.3734 34.6392 21.3369 34.9458 21.3858C35.2475 21.438 35.4532 21.4287 35.5627 21.358C35.737 21.2456 35.8596 20.9655 35.9304 20.5178C36.0044 20.075 35.945 19.7043 35.7522 19.4055L33.5783 16.0367C33.302 15.6085 33.0096 15.374 32.7012 15.3332C32.3959 15.2974 32.015 15.4339 31.5583 15.7427L31.3992 15.4962L35.0817 13.12L35.2408 13.3665Z" fill="#333333"/>
<circle cx="65" cy="65" r="41.5" fill="#ACACDA" stroke="#333333"/>
<g clip-path="url(#clip0_865_695)">
<path d="M64.9997 75.9088L63.308 74.3688C57.2997 68.9205 53.333 65.3272 53.333 60.9172C53.333 57.3238 56.1563 54.5005 59.7497 54.5005C61.7797 54.5005 63.728 55.4455 64.9997 56.9388C66.2713 55.4455 68.2197 54.5005 70.2497 54.5005C73.843 54.5005 76.6663 57.3238 76.6663 60.9172C76.6663 65.3272 72.6997 68.9205 66.6913 74.3805L64.9997 75.9088Z" fill="#333333"/>
</g>
<defs>
<clipPath id="clip0_865_695">
<rect width="28" height="28" fill="white" transform="translate(51 51)"/>
</clipPath>
</defs>
</svg>
